<svg width="2800" height="1280" xmlns="http://www.w3.org/2000/svg">

 <g>
  <title>background</title>
  <rect fill="none" id="canvas_background" height="2802" width="2802" y="-1" x="-1"/>
 </g>
 <g>
  <title>Layer 1</title>
  <path id="svg_1" d="m2670.005,34.536l-4.37,1043.045c0,0 -43.513,155.275 -219.473,160.83l-2052.247,0c0,0 -184.807,9.2 -258.022,-215.904l-3.681,-781.22c0,0 43.29,-184.729 256.428,-206.765l2281.365,0.014z" fill="#A6A8AB"/>
  <path stroke="null" id="svg_2" d="m2547.329819,439.704926l102.971165,-2.163079c-0.028902,182.884618 0.102651,611.359914 0.102651,611.359914c-30.536256,0 -93.504328,0.585269 -93.504328,0.585269s-1.060397,68.436865 -0.910905,104.918017l-16.419217,0l-701.739906,-178.450113l-178.682942,1.021561l-231.850311,31.285314c0,0 -199.480285,-0.589139 -204.998537,-0.00387c0,0 -125.430861,-8.199577 -147.165021,-8.199577l-681.953129,1.622309c0,-6.566627 -0.006976,-6.570496 -6.971316,-6.570496c-82.047252,-0.004837 -167.47203,-0.004837 -249.518285,-0.004837c-8.098486,0 -7.626091,-0.104478 -9.390098,-7.932578c0,0 2.265304,-45.138303 2.046049,-64.233566c-0.00598,-0.475955 0.159458,-0.952877 0.338849,-1.966699c2.180592,-0.133499 4.450879,-0.391792 6.724155,-0.391792c62.081085,-0.02225 120.780659,-0.207988 182.856762,0.21476c8.324718,0.054174 13.882834,-2.939891 19.223689,-8.152175c6.230831,-6.076161 12.852335,-7.415026 19.260564,-13.317057c10.265125,-9.452344 20.661803,-18.763449 30.879091,-28.259325c1.128167,-1.053485 2.041066,-2.926347 2.044056,-4.423863c0.090692,-39.576792 0.048834,-74.002246 0.015946,-113.575169c-0.001993,-0.947072 -0.156468,-1.895112 -0.285032,-3.341357c-24.58647,0 -48.991556,0 -73.763396,0c0,-12.968798 0,-34.144911 0,-47.221089c1.637437,-0.077391 3.401444,-0.226369 5.165451,-0.231206c11.408242,-0.023217 22.823459,-0.199282 34.224725,0.081261c4.534594,0.114152 6.032505,-1.405614 5.592998,-5.619554c-0.287025,-2.730935 -0.05581,-5.515076 -0.05581,-8.933824c9.686092,0 19.133994,0 29.18684,0c0,-7.76135 0,-11.300054 0,-18.412287c0.00299,-26.703766 0.090692,-53.414304 -0.108631,-80.122907c-0.023919,-3.025021 -1.162052,-6.313171 -2.668933,-9.014117c-7.593203,-13.608241 -15.42659,-27.095558 -23.292865,-40.561593c-3.3556,-5.737576 -5.724551,-8.030284 -9.378139,-13.591795c-0.658762,-1.002214 -2.217466,-2.046992 -3.369552,-2.055699c-16.4242,-0.134467 -26.198991,0.398564 -43.27996,0.398564c0,12.733722 -1.192947,24.566807 -1.192947,37.283116c-27.248426,0 -63.833133,-0.780682 -90.805497,-0.780682l1.46004,-87.953909c0,0 75.815424,-0.208956 106.687539,0l0.290015,-266.772597l110.427832,-0.285379l0.292008,150.173375l67.820586,2.322698l243.098097,0.926757l-0.714572,-157.228532l913.140691,1.29243l0.201316,29.416321l-155.20969,0.287314l0,42.101674l293.160017,0.740051l-0.027905,-95.603043l47.496635,0l0,-26.340996l-90.125806,0l-3.186175,-101.47315l795.860141,0l0,387.157207l0.000997,0z" fill="#FFFFFF" fill-rule="evenodd"/>
  <path id="svg_3" d="m1289.92,199.663c-1.359,-0.16 -1.86,-0.27 -2.362,-0.27c-95.768,-0.014 -191.538,-0.002 -287.307,-0.094c-4.269,-0.002 -4.918,1.908 -4.912,5.556c0.087,44.602 0.113,89.207 -0.033,133.808c-0.013,4.482 1.447,5.762 5.801,5.75c45.781,-0.119 91.561,-0.042 137.343,-0.159c2.132,-0.007 4.503,-0.975 6.348,-2.147c9.302,-5.901 18.571,-11.867 27.653,-18.098c13.198,-9.056 26.25,-18.325 39.322,-27.566c10.746,-7.6 21.379,-15.353 32.145,-22.929c14.455,-10.174 29.002,-20.219 43.448,-30.408c1.102,-0.78 2.429,-2.257 2.443,-3.422c0.172,-13.251 0.111,-26.502 0.111,-40.021z" fill="#FFFFFF" fill-rule="evenodd"/>
  <path id="svg_4" d="m326.407,400.429c0,26.459 0,52.652 0,79.303c-64.41,0 -128.744,0 -193.471,0c0,-26.194 0,-52.52 0,-79.303c64.209,0 128.528,0 193.471,0z" stroke-miterlimit="10" stroke-width="4.2141" stroke="#EAE9E9" fill="#E78A3A" fill-rule="evenodd"/>
  <path id="svg_5" d="m132.819,343.707c64.464,0 128.659,0 193.354,0c0,16.883 0,33.764 0,51.135c-64.229,0 -128.662,0 -193.354,0c0,-17.037 0,-33.933 0,-51.135z" stroke-miterlimit="10" stroke-width="4.2141" stroke="#EAE9E9" fill="#E78A3A" fill-rule="evenodd"/>
  <path id="svg_6" d="m132.762,338.381c0,-15.929 0,-31.35 0,-47.138c64.521,0 128.826,0 193.497,0c0,15.692 0,31.225 0,47.138c-64.452,0 -128.765,0 -193.497,0z" stroke-miterlimit="10" stroke-width="4.2141" stroke="#EAE9E9" fill="#E78A3A" fill-rule="evenodd"/>
  <path id="svg_7" d="m326.397,241.729c0,14.875 0,29.283 0,44.096c-64.561,0 -128.896,0 -194.186,0c0.398,-8.44 0.706,-16.743 1.209,-25.037c0.293,-4.827 0.816,-9.645 1.402,-14.448c0.366,-3.005 1.331,-5.063 5.3,-5.054c61.084,0.147 122.17,0.125 183.257,0.155c0.822,0 1.64,0.153 3.018,0.288z" stroke-miterlimit="10" stroke-width="4.2141" stroke="#EAE9E9" fill="#E78A3A" fill-rule="evenodd"/>
  <path id="svg_8" d="m136.849,236.371c2.508,-15.017 6.541,-29.277 13.508,-42.564c0.631,-1.205 3.352,-1.834 5.11,-1.848c15.812,-0.124 31.624,-0.042 47.436,-0.042c39.025,0.007 78.05,0.002 117.074,0.002c1.983,0 3.966,0 6.29,0c0,15.045 0,29.566 0,44.452c-63.012,0 -125.843,0 -189.418,0z" stroke-miterlimit="10" stroke-width="4.2141" stroke="#EAE9E9" fill="#E78A3A" fill-rule="evenodd"/>
  <path id="svg_9" d="m326.333,147.468c0,13.613 0,26.34 0,39.414c-57.446,0 -114.599,0 -172.096,0c3.809,-11.346 10.982,-20.646 16.686,-30.771c4.163,-7.396 9.318,-8.924 17.291,-8.847c43.758,0.424 87.521,0.204 131.283,0.204c2.149,0 4.301,0 6.836,0z" stroke-miterlimit="10" stroke-width="4.2141" stroke="#EAE9E9" fill="#E78A3A" fill-rule="evenodd"/>
  <path id="svg_10" d="m2637.547,247.513c0,14.561 0,28.291 0,42.682c-10.666,0 -21.048,-0.002 -31.428,0c-7.68,0.002 -7.685,0.005 -7.685,7.689c0,37.712 0,75.421 0,113.133c0,2.176 0,4.356 0,7.025c-157.595,0 -314.884,0 -472.62,0c0,-25.212 0,-50.511 0,-76.64c2.124,0 4.238,0 6.348,0c39.567,0 79.129,-0.038 118.69,0.059c4.075,0.009 7.112,-1.212 10.423,-3.753c8.434,-6.462 17.437,-12.186 26.162,-18.269c4.631,-3.226 9.203,-6.545 13.741,-9.896c4.421,-3.258 8.581,-6.92 13.223,-9.81c2.672,-1.667 2.935,-3.601 2.931,-6.227c-0.053,-22.055 -0.034,-44.107 -0.029,-66.162c0.014,-58.082 0.029,-116.162 0.047,-174.244c0,-1.976 0,-3.955 0,-6.271c81.293,0 162.03,0 243.708,0c0,3.045 -0.028,6.151 0.009,9.257c0.146,12.221 -1.616,10.483 10.816,10.591c8.566,0.073 17.133,0.014 26.552,0.014c0,2.485 0,4.59 0,6.696c0,55.723 0,111.448 0,167.173c0,6.937 0.009,6.943 6.906,6.949c10.573,0.007 21.149,0.004 32.206,0.004z" stroke-miterlimit="10" stroke-width="4.2141" stroke="#EAE9E9" fill="#D15C44" fill-rule="evenodd"/>
  <path id="svg_11" d="m2052.876,151.739c0,2.93 0,5.08 0,7.229c0,58.075 -0.057,116.148 0.099,174.22c0.014,4.904 -0.994,6.597 -6.315,6.564c-39.051,-0.247 -78.106,-0.223 -117.157,-0.021c-4.932,0.025 -6.217,-1.391 -6.146,-6.222c0.268,-19.173 0.107,-38.354 0.107,-58.231c-39.275,0 -78.217,0 -117.647,0c0,-32.355 0,-64.013 0,-96.325c15.884,0 31.605,0 47.658,0c0,-9.295 0,-17.939 0,-27.229c-30.817,0 -61.353,0 -92.241,0c0,-35.216 0,-69.784 0,-104.737c183.587,0 366.969,0 550.861,0c0.117,1.66 0.332,3.273 0.332,4.886c0.029,18.179 -0.042,36.358 0.075,54.539c0.02,3.001 -0.965,4.494 -3.563,6.271c-9.48,6.482 -18.571,13.539 -27.808,20.381c-7.9,5.854 -15.716,11.833 -23.775,17.462c-1.575,1.102 -4.103,1.163 -6.189,1.165c-63.627,0.057 -127.26,0.047 -190.887,0.047c-2.167,0.001 -4.334,0.001 -7.404,0.001z" stroke-miterlimit="10" stroke-width="4.2141" stroke="#EAE9E9" fill="#D15C44" fill-rule="evenodd"/>
  <path id="svg_12" d="m2312.479,117.965c0,7.364 0,14.731 0,22.097c0,49.832 -0.043,99.666 0.08,149.5c0.009,4.203 -1.37,6.488 -5.008,8.776c-6.601,4.16 -12.519,9.394 -18.876,13.963c-8.116,5.83 -16.817,10.926 -24.464,17.301c-7.282,6.073 -15.126,7.201 -24.142,7.117c-35.858,-0.333 -71.721,-0.136 -107.578,-0.138c-6.978,0 -6.985,-0.009 -6.985,-7.197c0,-36.198 0.014,-72.393 -0.011,-108.59c-0.009,-8.311 0.864,-7.427 -7.688,-7.448c-18.014,-0.044 -36.026,-0.138 -54.039,0.075c-4.436,0.052 -6.151,-0.97 -6.049,-5.807c0.319,-14.64 0.311,-29.296 0.01,-43.936c-0.104,-4.914 1.458,-6.187 6.269,-6.175c60.097,0.152 120.199,-0.112 180.296,0.329c9.021,0.065 15.96,-2.497 22.805,-7.788c10.549,-8.158 21.544,-15.735 32.262,-23.67c3.971,-2.938 7.699,-6.201 11.534,-9.314c0.528,0.303 1.053,0.603 1.584,0.905z" stroke-miterlimit="10" stroke-width="4.2141" stroke="#EAE9E9" fill="#D15C44" fill-rule="evenodd"/>
  <path id="svg_13" d="m2105.865484,432.176078c105.088,0 209.711,0 314.658,0c0,12.371 0,24.406 0,37.07c-14.154,0 -28.197,0 -42.856,0c0,20.037 0,39.467 0,59.518c-11.276,0 -21.952,0 -33.426,0c0,34.302 0,67.988 0,102.008c-10.812,0 -20.83,0 -31.296,0c0,-25.708 0,-51.33 0,-77.714c3.912,0 7.729,-0.091 11.53,0.03c3.01,0.094 4.224,-1.144 4.21,-4.175c-0.07,-15.32 -0.104,-30.638 0.02,-45.955c0.033,-3.976 -2.213,-4.212 -5.219,-4.198c-13.635,0.059 -27.27,0.023 -40.902,0.023c-36.866,0 -73.727,-0.002 -110.593,0.003c-6.69,0.002 -6.704,0.016 -6.704,6.678c-0.01,28.617 -0.006,57.232 -0.006,85.849c0,1.819 0,3.641 0,6.071c5.768,0 11.065,0 16.763,0c0,11.429 0,22.238 0,33.389c-25.394,0 -50.561,0 -76.179,0c0,-66.11 0,-132.133 0,-198.597z" stroke-miterlimit="10" stroke-width="4.2141" stroke="#EAE9E9" fill="#D15C44" fill-rule="evenodd"/>
  <path id="svg_14" d="m2573.015111,768.138342c-51.845,0 -103.297,0 -155.212,0c0,-32.226 0,-64.394 0,-97.213c8.954,0 17.829,-0.249 26.682,0.099c4.825,0.189 6.39,-1.273 6.297,-6.208c-0.29,-15.814 -0.107,-31.638 -0.107,-47.459c0,-1.807 0,-3.615 0,-5.715c41.052,0 81.514,0 122.341,0c-0.001,52.085 -0.001,103.994 -0.001,156.496z" stroke-miterlimit="10" stroke-width="4.2141" stroke="#EAE9E9" fill="#D15C44" fill-rule="evenodd"/>
  <path stroke="#EAE9E9" id="svg_15" d="m2285.195247,610.981566c-25.399533,0 -50.26001,0 -75.715955,0c0,-1.508927 0,-3.00592 0,-4.502913c-0.002507,-5.911731 -0.075844,-11.824124 0.036355,-17.733203c0.040743,-2.34361 -0.76408,-3.212104 -2.953521,-3.088128c-2.413213,0.137898 -4.840842,0.03116 -7.553042,0.03116c0,-19.718144 0,-39.252645 0,-59.018524c31.929623,0 63.827279,0 95.983807,0c0,9.662832 0,19.301797 0,29.411473c-3.100195,0 -6.294411,0 -9.797643,0c0,18.477722 0,36.493351 0,54.900135z" stroke-miterlimit="10" stroke-width="4.2141" fill="#D15C44" fill-rule="evenodd"/>
  <path stroke="#EAE9E9" id="svg_16" d="m2574.901202,796.053821c0,18.167438 0,35.920554 0,54.491539c-2.794,0 -5.409,0 -8.026,0c-10.437,0 -20.878,0.125374 -31.31,-0.062687c-3.788,-0.069543 -4.993,1.257655 -4.919,4.885658c0.193,9.36483 0.065,18.732599 0.065,28.817349c-8.48,0 -16.498,-0.005877 -24.511,0c-6.799,0.004897 -6.803,0.008815 -6.803,6.86911c-0.004,57.050926 -0.004,114.10675 -0.004,171.155718c0,2.106867 0,4.209815 0,6.654603c-22.807,0 -45.096,0 -67.76,0c0,-70.753884 0,-141.397087 0,-212.578026c1.786,-0.082276 3.564,-0.238993 5.346,-0.242911c15.486,-0.01861 30.977,-0.13321 46.463,0.067584c4.2,0.054851 5.523,-1.257655 5.471,-5.362666c-0.196,-16.32699 -0.079,-32.651042 -0.079,-48.973136c0,-1.781678 0,-3.569233 0,-5.722135c28.803,0 57.15,0 86.067,0z" stroke-miterlimit="10" stroke-width="4.2141" fill="#D15C44" fill-rule="evenodd"/>
  <path id="svg_17" d="m1529.446,337.31c-10.011,-6.62 -19.185,-12.659 -28.328,-18.742c-13.23,-8.798 -26.4,-17.69 -39.692,-26.389c-2.536,-1.658 -3.614,-3.449 -3.601,-6.525c0.126,-25.581 0.145,-51.163 0.046,-76.746c-0.009,-3.444 0.967,-4.762 4.563,-4.668c12.668,0.333 10.193,-1.519 10.442,10.313c0.111,5.551 0.22,11.116 -0.043,16.658c-0.197,4.276 1.57,5.572 5.649,5.473c8.749,-0.208 17.507,0.078 26.256,-0.124c3.558,-0.083 4.638,1.174 4.58,4.651c-0.169,11.104 0.076,22.216 -0.121,33.321c-0.076,4.143 1.331,5.856 5.537,5.577c3.685,-0.246 7.403,0.037 11.103,-0.063c2.513,-0.068 3.651,0.804 3.643,3.479c-0.066,17.493 -0.034,34.986 -0.034,53.785z" stroke-miterlimit="10" stroke-width="4.2141" stroke="#EAE9E9" fill="#D15C44" fill-rule="evenodd"/>
  <path id="svg_18" d="m1665.708,204.648c0,9.012 0,17.544 0,26.471c-62.445,0 -124.629,0 -187.263,0c0,-8.664 0,-17.322 0,-26.471c62.198,0 124.508,0 187.263,0z" stroke-miterlimit="10" stroke-width="4.2141" stroke="#EAE9E9" fill="#D15C44" fill-rule="evenodd"/>
  <path id="svg_19" d="m1805.984,280.068c11.102,-0.002 22.205,0.089 33.306,-0.059c3.25,-0.042 4.408,0.998 4.384,4.32c-0.111,16.986 -0.093,33.978 0.043,50.967c0.029,3.392 -1.313,4.275 -4.473,4.262c-22.374,-0.089 -44.743,-0.082 -67.117,-0.003c-2.986,0.009 -4.181,-0.945 -4.162,-4.053c0.117,-17.158 0.136,-34.313 0.043,-51.471c-0.02,-3.146 1.204,-4.039 4.168,-4.008c11.271,0.113 22.537,0.045 33.808,0.045z" stroke-miterlimit="10" stroke-width="4.2141" stroke="#EAE9E9" fill="#D15C44" fill-rule="evenodd"/>
  <path id="svg_20" d="m1725.937,339.522c-10.595,0.003 -21.196,-0.12 -31.793,0.068c-3.623,0.066 -5.049,-0.909 -5.007,-4.791c0.196,-16.82 0.178,-33.643 0.07,-50.463c-0.022,-3.313 1.121,-4.342 4.374,-4.325c21.699,0.108 43.402,0.094 65.101,0.014c2.954,-0.011 4.187,0.849 4.173,4.001c-0.099,17.158 -0.099,34.315 0.051,51.471c0.033,3.624 -1.739,4.086 -4.674,4.06c-10.766,-0.088 -21.531,-0.035 -32.295,-0.035z" stroke-miterlimit="10" stroke-width="4.2141" stroke="#EAE9E9" fill="#D15C44" fill-rule="evenodd"/>
  <path id="svg_21" d="m1646.973,339.525c-10.432,0 -20.858,-0.11 -31.286,0.059c-3.685,0.061 -5.42,-0.703 -5.358,-4.958c0.243,-16.649 0.202,-33.305 0.079,-49.956c-0.023,-3.444 0.976,-4.694 4.559,-4.672c21.528,0.136 43.059,0.138 64.588,0c3.624,-0.023 4.543,1.308 4.521,4.705c-0.118,16.654 -0.118,33.308 0.06,49.958c0.039,3.713 -1.073,5.012 -4.866,4.937c-10.763,-0.211 -21.532,-0.076 -32.297,-0.073z" stroke-miterlimit="10" stroke-width="4.2141" stroke="#EAE9E9" fill="#D15C44" fill-rule="evenodd"/>
  <path id="svg_22" d="m1569.866,339.52c-10.09,0.002 -20.185,-0.122 -30.273,0.07c-3.625,0.068 -5.054,-0.909 -5.008,-4.794c0.192,-16.817 0.179,-33.64 0.065,-50.46c-0.019,-3.31 1.121,-4.342 4.38,-4.325c20.685,0.108 41.376,0.094 62.066,0.014c2.958,-0.011 4.187,0.849 4.173,4.001c-0.095,17.156 -0.076,34.313 0.041,51.471c0.019,3.101 -1.161,4.095 -4.158,4.062c-10.426,-0.112 -20.854,-0.041 -31.286,-0.039z" stroke-miterlimit="10" stroke-width="4.2141" stroke="#EAE9E9" fill="#D15C44" fill-rule="evenodd"/>
  <path id="svg_23" d="m1883.429,339.511c-10.095,-0.002 -20.188,-0.096 -30.282,0.054c-3.273,0.047 -4.403,-1.083 -4.376,-4.367c0.132,-16.989 0.16,-33.983 0.037,-50.971c-0.022,-3.446 1.37,-4.222 4.493,-4.21c20.188,0.082 40.378,0.084 60.561,-0.059c3.531,-0.026 4.646,1.168 4.614,4.651c-0.132,16.823 -0.15,33.647 0.009,50.467c0.032,3.683 -1.436,4.543 -4.778,4.492c-10.09,-0.151 -20.185,-0.055 -30.278,-0.057z" stroke-miterlimit="10" stroke-width="4.2141" stroke="#EAE9E9" fill="#D15C44" fill-rule="evenodd"/>
  <path id="svg_24" d="m1452.916,286.09c-1.762,-1.048 -3.192,-1.808 -4.529,-2.708c-18.394,-12.396 -36.721,-24.891 -55.198,-37.147c-3.202,-2.122 -4.426,-4.393 -4.318,-8.205c0.268,-9.405 0.211,-18.83 0.024,-28.239c-0.07,-3.535 0.703,-5.099 4.693,-5.059c18.491,0.192 36.983,0.115 55.474,0.056c2.721,-0.009 4.408,0.382 4.398,3.763c-0.089,25.05 -0.028,50.099 -0.037,75.147c0,0.606 -0.249,1.209 -0.507,2.392z" stroke-miterlimit="10" stroke-width="4.2141" stroke="#EAE9E9" fill="#D15C44" fill-rule="evenodd"/>
  <path stroke="#EAEAEA" id="svg_25" d="m1744.9244,823.036816c84.111,0 167.875,0 252.072,0c0,114.708588 0,229.295608 0,344.1941c-83.878,0 -167.76,0 -252.072,0c0,-114.580546 0,-229.168286 0,-344.1941z" stroke-miterlimit="10" stroke-width="4.6168" fill="#BD365A" fill-rule="evenodd"/>
  <path stroke="#EAEAEA" transform="rotate(180 2143.596923828125,998.156005859375) " id="svg_26" d="m2289.466592,1168.821895c-58.576842,0 -116.678049,0 -175.507799,0c0,-1.699222 0,-3.214397 0,-4.732426c0,-40.58872 0,-81.18386 -0.006245,-121.775433c0,-5.171855 -0.004163,-5.175422 -7.459227,-5.175422c-33.992719,-0.002853 -67.984398,0 -101.975035,0c-2.095078,0 -4.192238,0 -6.792091,0c0,-41.308499 0,-82.417258 0,-124.188014c1.840088,0 3.844619,0 5.850191,0c20.674975,0 41.349951,0 62.024926,-0.002853c7.295826,0 7.306233,-0.007847 7.306233,-4.869391c0.005204,-25.339237 0.005204,-50.680614 0.005204,-76.019138c0,-1.425292 0,-2.846304 0,-4.569067c72.335874,0 144.233582,0 216.554884,0c-0.001041,113.675951 -0.001041,227.324794 -0.001041,341.331744z" stroke-miterlimit="10" stroke-width="4.6168" fill="#BD365A" fill-rule="evenodd"/>
  <path stroke="#EAEAEA" id="svg_27" d="m1729.981648,1164.972766c-1.217442,0 -2.26286,0 -3.310932,0c-13.494331,0 -26.996626,-0.483238 -40.48087,0.288436c-4.149284,0.238928 -6.507181,-3.350376 -8.891626,-8.860793c-6.779022,-15.686391 -13.656267,-31.194123 -20.42998,-46.891276c-5.424598,-12.569561 -10.709559,-25.382356 -16.133626,-37.946536c-3.62684,-8.396928 -7.450659,-16.45053 -11.079092,-24.842077c-5.492558,-12.690102 -10.873619,-25.571776 -16.340692,-38.304928c-2.043051,-4.751658 -4.206625,-9.294523 -6.292682,-13.976224c-3.148996,-7.073136 -6.27994,-14.179636 -9.690688,-21.880228c4.612262,-8.409843 9.105594,-16.578605 13.586714,-24.775349c3.957615,-7.23565 7.861605,-14.602604 11.890897,-21.668206c0.848971,-1.484153 2.148177,-2.700319 3.240848,-2.705701c36.015678,-0.140989 72.030293,-0.114083 108.045971,-0.106549c0.702432,0 1.402208,0.184039 2.310113,0.308885c0,21.612241 0,43.037214 0,65.234936c-1.117094,0 -2.156141,0 -3.194126,0c-10.367635,0 -20.733677,0.114083 -31.101311,-0.091482c-2.289937,-0.039821 -3.130944,1.195717 -3.103866,6.089441c0.114152,20.829805 0.129018,41.667143 -0.007964,62.496948c-0.034511,5.227362 0.875517,6.41124 3.261555,6.335903c8.218927,-0.241081 16.44157,-0.090405 24.664214,-0.090405c0.960999,0 1.918811,0 3.056613,0c0.000531,33.861079 0.000531,67.114074 0.000531,101.385206z" stroke-miterlimit="10" stroke-width="4.6168" fill="#BD365A" fill-rule="evenodd"/>
  <path id="svg_28" d="m1626.016,1164.738c-87.355,0 -173.408,0 -259.846,0c0,-45.03 0,-89.842 0,-135.144c1.875,-0.088 3.666,-0.248 5.458,-0.253c15.646,-0.019 31.31,-0.379 46.937,0.165c6.493,0.229 11.103,-2.081 15.486,-6.23c10.465,-9.907 20.999,-19.735 31.568,-29.524c1.561,-1.449 3.445,-2.551 5.541,-4.074c51.427,58.137 102.72,116.119 154.856,175.06z" stroke-miterlimit="10" stroke-width="4.6168" stroke="#EAEAEA" fill="#BD365A" fill-rule="evenodd"/>
  <path stroke="#EAEAEA" id="svg_29" d="m1736.571019,827.854c0,35.872 0,71.477 0,107.593c-1.137155,0.103 -2.150805,0.271 -3.167301,0.271c-37.92224,0.014 -75.843342,-0.005 -113.764444,0.065c-1.969247,0 -3.356258,-0.693 -4.530976,-3.882c-4.172983,-11.322 -8.44329,-22.553 -12.85873,-33.584c-8.11034,-20.25 -16.363535,-40.313 -24.518837,-60.506c-1.197485,-2.968 -2.169018,-6.212 -3.463257,-9.958c54.180483,0.001 108.0781,0.001 162.303545,0.001z" stroke-miterlimit="10" stroke-width="4.6168" fill="#BD365A" fill-rule="evenodd"/>
  <path id="svg_31" d="m2305.380516,989.106c2.33,0 4.313,0 6.296,0c20.859,0 41.743,0.554 62.569,-0.263c8.575,-0.336 13.531,3.011 18.359,9.176c10.812,13.813 22.087,27.265 33.134,40.896c2.724,3.363 5.187,6.94 7.961,10.255c4.759,5.688 6.217,12.008 6.122,19.485c-0.393,30.278 -0.163,60.563 -0.163,90.84c0,1.988 0,3.981 0,6.348c-44.925,0 -89.391,0 -134.278,0c0,-58.661 0,-117.272 0,-176.737z" stroke-miterlimit="10" stroke-width="4.6168" stroke="#EAEAEA" fill="#BD365A" fill-rule="evenodd"/>
  <path stroke="#EAEAEA" id="svg_32" d="m1434.873335,1241.825733c-68.308724,0 -135.875977,0 -203.9547,0c0,-107.944217 0,-215.154593 0,-323.465731c67.771519,0 135.534996,0 203.9547,0c0,107.411823 0,214.912378 0,323.465731z" stroke-miterlimit="10" stroke-width="0" fill="#ffffff" fill-rule="evenodd"/>
  <path id="svg_33" d="m1228.66,1080.841c-49.684,0 -98.397,0 -147.449,0c0,-36.355 0,-72.405 0,-108.835c2.094,-0.094 3.896,-0.243 5.7,-0.243c25.229,-0.014 50.459,-0.104 75.684,0.126c2.659,0.023 5.855,1.284 7.867,3.038c16.218,14.193 32.21,28.644 48.287,42.994c0.615,0.549 1.397,0.899 2.053,1.403c5.069,3.891 8.492,8.066 8.074,15.438c-0.764,13.414 -0.215,26.898 -0.215,40.355c-0.001,1.799 -0.001,3.6 -0.001,5.724z" stroke-miterlimit="10" stroke-width="4.6168" stroke="#EAEAEA" fill="#BD365A" fill-rule="evenodd"/>
  <path id="svg_34" d="m2444.637,1165.836c0,-35.667 0,-70.934 0,-106.604c42.01,0 83.793,0 125.985,0c0,35.418 0,70.807 0,106.604c-41.85,0 -83.634,0 -125.985,0z" stroke-miterlimit="10" stroke-width="4.6168" stroke="#EAEAEA" fill="#BD365A" fill-rule="evenodd"/>
  <path stroke="#EAEAEA" id="svg_35" d="m1494.351111,965.024977c0,-28.809004 0,-57.295915 0,-86.088402c23.825,0 47.424,0 71.428,0c0,28.625809 0,57.199813 0,86.088402c-23.658,0 -47.249,0 -71.428,0z" stroke-miterlimit="10" stroke-width="4.6168" fill="#BD365A" fill-rule="evenodd"/>
  <path id="svg_36" d="m2199.64821,858.734048c25.928,0 51.441,0 77.359,0c0,24.178 0,48.131 0,72.489c-25.688,0 -51.318,0 -77.359,0c0,-24.006 0,-47.955 0,-72.489z" stroke-miterlimit="10" stroke-width="4.6168" stroke="#EAEAEA" fill="#BD365A" fill-rule="evenodd"/>
  <path id="svg_37" d="m2297.009731,1166.623843c-25.927,0 -51.441,0 -77.359,0c0,-23.842 0,-47.451 0,-71.477c25.684,0 51.315,0 77.359,0c0,23.663 0,47.279 0,71.477z" stroke-miterlimit="10" stroke-width="4.6168" stroke="#EAEAEA" fill="#BD365A" fill-rule="evenodd"/>
  <path id="svg_38" d="m2310.912236,918.322213c0,-23.242 0,-46.064 0,-69.286c25.862,0 51.497,0 77.532,0c0,22.996 0,45.941 0,69.286c-25.691,0 -51.324,0 -77.532,0z" stroke-miterlimit="10" stroke-width="4.6168" stroke="#EAEAEA" fill="#BD365A" fill-rule="evenodd"/>
  <path id="svg_39" d="m2385.761875,922.412252c0,22.553 0,44.7 0,67.253c-25.853,0 -51.489,0 -77.534,0c0,-22.31 0,-44.575 0,-67.253c25.679,0 51.312,0 77.534,0z" stroke-miterlimit="10" stroke-width="4.6168" stroke="#EAEAEA" fill="#BD365A" fill-rule="evenodd"/>
  <path id="svg_40" d="m1220.446,500.28c0,39.744 0,79.083 0,118.879c-27.185,0 -54.303,0 -81.95,0c0,-25.962 0,-51.799 0,-78.3c-20.086,0 -39.663,0 -59.551,0c0,-13.857 0,-27.05 0,-40.579c47.15,0 94.03,0 141.501,0z" stroke-miterlimit="10" stroke-width="4.2141" stroke="#EAE9E9" fill="#E78A3A" fill-rule="evenodd"/>
  <path id="svg_41" d="m977.002,545.766c0,24.569 0,48.758 0,73.396c-48.402,0 -96.726,0 -145.376,0c0,-24.422 0,-48.728 0,-73.396c48.372,0 96.577,0 145.376,0z" stroke-miterlimit="10" stroke-width="4.2141" stroke="#EAE9E9" fill="#E78A3A" fill-rule="evenodd"/>
  <path id="svg_42" d="m1078.939,494.991c0,-16.515 0,-32.738 0,-49.447c19.763,0 39.217,0 59.193,0c0,-15.203 0,-29.934 0,-45.137c27.641,0 54.759,0 82.219,0c0,31.453 0,62.831 0,94.584c-47.005,0 -93.877,0 -141.412,0z" stroke-miterlimit="10" stroke-width="4.2141" stroke="#EAE9E9" fill="#E78A3A" fill-rule="evenodd"/>
  <path id="svg_43" d="m535.568,619.241c0,-24.542 0,-48.727 0,-73.377c45.007,0 89.966,0 135.256,0c0,24.394 0,48.7 0,73.377c-44.976,0 -89.815,0 -135.256,0z" stroke-miterlimit="10" stroke-width="4.2141" stroke="#EAE9E9" fill="#E78A3A" fill-rule="evenodd"/>
  <path id="svg_44" d="m530.572,443.268c0,58.853 0,116.847 0,176.009c-4.841,-3.331 -9.133,-5.969 -13.073,-9.058c-10.493,-8.224 -20.848,-16.625 -31.23,-24.99c-3.123,-2.513 -4.738,-5.44 -4.709,-9.862c0.215,-34.669 0.191,-69.338 0.019,-104.007c-0.021,-3.854 1.343,-5.858 4.351,-8.029c6.343,-4.583 12.514,-9.49 18.243,-14.814c4.082,-3.791 8.231,-5.881 13.878,-5.326c3.967,0.393 8.004,0.077 12.521,0.077z" stroke-miterlimit="10" stroke-width="4.2141" stroke="#EAE9E9" fill="#E78A3A" fill-rule="evenodd"/>
  <path id="svg_45" d="m751.697,540.488c0,-32.417 0,-64.343 0,-96.696c24.809,0 49.452,0 74.561,0c0,32.027 0,64.193 0,96.696c-24.724,0 -49.365,0 -74.561,0z" stroke-miterlimit="10" stroke-width="4.2141" stroke="#EAE9E9" fill="#E78A3A" fill-rule="evenodd"/>
  <path id="svg_46" d="m831.671,443.607c23.886,0 47.396,0 71.366,0c0,32.226 0,64.395 0,96.888c-23.735,0 -47.365,0 -71.366,0c0,-32.198 0,-64.244 0,-96.888z" stroke-miterlimit="10" stroke-width="4.2141" stroke="#EAE9E9" fill="#E78A3A" fill-rule="evenodd"/>
  <path id="svg_47" d="m676.109,443.607c23.541,0 46.716,0 70.351,0c0,32.224 0,64.39 0,96.886c-23.391,0 -46.686,0 -70.351,0c0,-32.191 0,-64.238 0,-96.886z" stroke-miterlimit="10" stroke-width="4.2141" stroke="#EAE9E9" fill="#E78A3A" fill-rule="evenodd"/>
  <path id="svg_48" d="m976.951,443.725c0,32.393 0,64.289 0,96.642c-22.756,0 -45.354,0 -68.414,0c0,-31.983 0,-64.132 0,-96.642c22.637,0 45.236,0 68.414,0z" stroke-miterlimit="10" stroke-width="4.2141" stroke="#EAE9E9" fill="#E78A3A" fill-rule="evenodd"/>
  <path id="svg_49" d="m670.89,540.641c-22.657,0 -44.951,0 -67.616,0c0,-32.332 0,-64.39 0,-96.913c22.412,0 44.827,0 67.616,0c0,32.153 0,64.213 0,96.913z" stroke-miterlimit="10" stroke-width="4.2141" stroke="#EAE9E9" fill="#E78A3A" fill-rule="evenodd"/>
  <path id="svg_50" d="m1133.439,619.377c-27.585,0 -54.797,0 -82.471,0c0,-24.477 0,-48.896 0,-73.65c27.435,0 54.766,0 82.471,0c0,24.449 0,48.752 0,73.65z" stroke-miterlimit="10" stroke-width="4.2141" stroke="#EAE9E9" fill="#E78A3A" fill-rule="evenodd"/>
  <path id="svg_51" d="m598.23,443.657c0,32.374 0,64.432 0,96.879c-20.829,0 -41.442,0 -62.531,0c0,-32.133 0,-64.31 0,-96.879c20.652,0 41.266,0 62.531,0z" stroke-miterlimit="10" stroke-width="4.2141" stroke="#EAE9E9" fill="#E78A3A" fill-rule="evenodd"/>
  <path id="svg_52" d="m751.87,545.639c24.892,0 49.409,0 74.393,0c0,24.476 0,48.898 0,73.649c-24.741,0 -49.379,0 -74.393,0c0,-24.448 0,-48.748 0,-73.649z" stroke-miterlimit="10" stroke-width="4.2141" stroke="#EAE9E9" fill="#E78A3A" fill-rule="evenodd"/>
  <path id="svg_53" d="m1225.65,500.19c20.461,0 40.584,0 61.335,0c0.108,1.836 0.3,3.603 0.3,5.373c0.023,15.974 -0.146,31.948 0.126,47.914c0.071,4.025 -1.523,6.557 -4.2,9.084c-14.122,13.349 -28.146,26.8 -42.249,40.171c-4.811,4.562 -9.743,9 -15.313,14.131c0.001,-39.338 0.001,-77.704 0.001,-116.673z" stroke-miterlimit="10" stroke-width="4.2141" stroke="#EAE9E9" fill="#E78A3A" fill-rule="evenodd"/>
  <path id="svg_54" d="m746.551,619.379c-23.55,0 -46.723,0 -70.355,0c0,-24.483 0,-48.903 0,-73.654c23.402,0 46.693,0 70.355,0c0,24.456 0,48.758 0,73.654z" stroke-miterlimit="10" stroke-width="4.2141" stroke="#EAE9E9" fill="#E78A3A" fill-rule="evenodd"/>
  <path id="svg_55" d="m1045.689,545.775c0,24.551 0,48.735 0,73.377c-21.108,0 -42.162,0 -63.549,0c0,-24.403 0,-48.704 0,-73.377c21.081,0 42.016,0 63.549,0z" stroke-miterlimit="10" stroke-width="4.2141" stroke="#EAE9E9" fill="#E78A3A" fill-rule="evenodd"/>
  <path id="svg_56" d="m1287.056,445.755c0,16.543 0,32.62 0,49.152c-20.382,0 -40.612,0 -61.321,0c0,-16.135 0,-32.463 0,-49.152c20.263,0 40.494,0 61.321,0z" stroke-miterlimit="10" stroke-width="4.2141" stroke="#EAE9E9" fill="#E78A3A" fill-rule="evenodd"/>
  <path id="svg_57" d="m1225.571,440.415c0,-13.512 0,-26.694 0,-40.178c20.535,0 40.761,0 61.362,0c0,13.433 0,26.603 0,40.178c-20.367,0 -40.597,0 -61.362,0z" stroke-miterlimit="10" stroke-width="4.2141" stroke="#EAE9E9" fill="#E78A3A" fill-rule="evenodd"/>
  <path id="svg_58" d="m1133.414,440.529c-18.239,0 -36.161,0 -54.708,0c0,-9.937 0,-19.61 0,-29.915c-7.396,0 -14.185,0 -21.3,0c-0.204,-2.075 -0.299,-3.546 -0.499,-5.005c-0.585,-4.262 0.881,-5.832 5.507,-5.781c22.045,0.244 44.096,0.101 66.145,0.112c1.492,0 2.982,0.132 4.856,0.221c-0.001,13.391 -0.001,26.589 -0.001,40.368z" stroke-miterlimit="10" stroke-width="4.2141" stroke="#EAE9E9" fill="#E78A3A" fill-rule="evenodd"/>
  <path id="svg_59" d="m1053.776,892.771c0,42.91 0,84.938 0,127.836c-2.036,0 -3.968,0 -5.902,0c-38.545,0 -77.092,0 -115.636,0c-6.551,0 -6.559,0.017 -6.559,6.739c-0.004,22.04 -0.001,44.076 -0.001,66.562c-71.177,0 -142.06,0 -213.26,0c0,-105.932 0,-211.71 0,-318.016c14.919,0 29.648,0 44.897,0c0,-22.988 0,-45.461 0,-68.363c76.381,0 152.238,0 228.79,0c0,61.433 0,123.077 0,185.242c22.82,0 44.954,0 67.671,0z" stroke-miterlimit="10" stroke-width="4.6168" stroke="#EAEAEA" fill="#BD365A" fill-rule="evenodd"/>
  <path id="svg_60" d="m483.09,1093.903c0,-46.094 0,-91.802 0,-138.331c2.133,0 4.075,0 6.016,0c24.903,0 49.808,-0.111 74.709,0.099c4.684,0.037 6.083,-1.368 6.001,-6.024c-0.268,-14.802 -0.098,-29.613 -0.098,-44.419c0,-1.817 0,-3.633 0,-5.837c45.982,0 91.472,0 137.363,0c0,64.763 0,129.436 0,194.513c-74.519,-0.001 -148.952,-0.001 -223.991,-0.001z" stroke-miterlimit="10" stroke-width="4.6168" stroke="#EAEAEA" fill="#BD365A" fill-rule="evenodd"/>
  <path id="svg_61" d="m991.384,707.35c79.133,0 157.825,0 236.91,0c0,30.94 0,61.617 0,92.875c-54.279,0 -108.376,0 -163.056,0c0,9.559 0,18.562 0,27.99c-24.868,0 -49.153,0 -73.854,0c0,-40.12 0,-80.225 0,-120.865z" stroke-miterlimit="10" stroke-width="4.6168" stroke="#EAEAEA" fill="#BD365A" fill-rule="evenodd"/>
  <path id="svg_62" d="m483.165,846.43c2.527,0 4.684,0 6.838,0c43.253,0 86.508,-0.08 129.764,0.107c5.026,0.019 6.613,-1.219 6.587,-6.437c-0.208,-41.905 -0.115,-83.816 -0.115,-125.727c0,-2.167 0,-4.333 0,-6.931c13.22,0 26.083,0 39.87,0c0,1.791 0,3.713 0,5.64c0,19.021 0.131,38.038 -0.094,57.055c-0.054,4.53 1.449,5.762 5.807,5.669c11.592,-0.264 23.198,-0.089 35.25,-0.089c0,39.547 0,78.785 0,118.342c-74.594,0 -149.059,0 -223.906,0c-0.001,-15.697 -0.001,-31.247 -0.001,-47.629z" stroke-miterlimit="10" stroke-width="4.6168" stroke="#EAEAEA" fill="#BD365A" fill-rule="evenodd"/>
  <path id="svg_63" d="m1221.9709,1178.29292c-52.457,0 -104.424,0 -156.786,0c0,-29.785 0,-59.313 0,-89.282c52.125,0 104.213,0 156.786,0c0,29.552 0,59.197 0,89.282z" stroke-miterlimit="10" stroke-width="4.6168" stroke="#EAEAEA" fill="#BD365A" fill-rule="evenodd"/>
  <path id="svg_64" d="m621.338,778.231c0,21.068 0,41.872 0,63.125c-45.922,0 -91.752,0 -138.039,0c0,-20.826 0,-41.751 0,-63.125c45.743,0 91.571,0 138.039,0z" stroke-miterlimit="10" stroke-width="4.6168" stroke="#EAEAEA" fill="#BD365A" fill-rule="evenodd"/>
  <path id="svg_65" d="m621.313,707.073c0,22.131 0,43.599 0,65.55c-45.921,0 -91.85,0 -138.43,0c0,-7.412 -0.687,-14.854 0.338,-22.045c0.407,-2.874 4.405,-5.43 7.098,-7.745c10.359,-8.899 21.025,-17.451 31.237,-26.514c6.662,-5.917 13.167,-9.893 22.962,-9.528c23.341,0.873 46.74,0.282 70.114,0.282c2.01,0 4.016,0 6.681,0z" stroke-miterlimit="10" stroke-width="4.6168" stroke="#EAEAEA" fill="#BD365A" fill-rule="evenodd"/>
  <path id="svg_70" d="m1530.474,503.254c-25.693,0 -50.884,0 -76.644,0c-0.094,-1.927 -0.258,-3.704 -0.258,-5.48c-0.014,-31.629 0.079,-63.257 -0.112,-94.886c-0.028,-4.627 1.266,-5.985 5.913,-5.938c22.204,0.225 44.413,0.14 66.618,0.059c3.192,-0.012 4.895,0.518 4.882,4.355c-0.132,32.974 -0.076,65.948 -0.095,98.925c0,0.814 -0.16,1.625 -0.304,2.965z" stroke-miterlimit="10" stroke-width="4.2141" stroke="#EAE9E9" fill="#D15C44" fill-rule="evenodd"/>
  <path id="svg_73" d="m1767.721,503.071c0,-1.997 0,-3.643 0,-5.288c0,-31.629 0.09,-63.257 -0.098,-94.886c-0.028,-4.614 1.241,-5.999 5.901,-5.95c21.53,0.232 43.064,0.143 64.599,0.062c3.184,-0.012 4.904,0.499 4.891,4.348c-0.132,32.975 -0.08,65.949 -0.094,98.923c0,0.813 -0.164,1.626 -0.287,2.792c-24.791,-0.001 -49.431,-0.001 -74.912,-0.001z" stroke-miterlimit="10" stroke-width="4.2141" stroke="#EAE9E9" fill="#D15C44" fill-rule="evenodd"/>
  <path id="svg_74" d="m1683.934,503.151c-24.517,0 -48.818,0 -73.498,0c-0.107,-1.838 -0.286,-3.467 -0.286,-5.094c-0.019,-31.797 0.07,-63.593 -0.107,-95.39c-0.022,-4.386 1.116,-5.765 5.621,-5.717c21.197,0.227 42.394,0.117 63.591,0.082c2.879,-0.004 5.176,-0.112 5.157,4.051c-0.146,33.479 -0.108,66.957 -0.14,100.435c-0.001,0.328 -0.132,0.656 -0.338,1.633z" stroke-miterlimit="10" stroke-width="4.2141" stroke="#EAE9E9" fill="#D15C44" fill-rule="evenodd"/>
  <path id="svg_75" d="m1688.932,503.079c0,-2.019 0,-3.667 0,-5.314c0,-31.629 0.088,-63.257 -0.104,-94.884c-0.027,-4.642 1.29,-5.979 5.917,-5.93c21.196,0.229 42.397,0.143 63.596,0.059c3.201,-0.014 4.885,0.537 4.871,4.365c-0.131,32.974 -0.079,65.949 -0.094,98.923c0,0.811 -0.164,1.624 -0.286,2.783c-24.471,-0.002 -48.77,-0.002 -73.9,-0.002z" stroke-miterlimit="10" stroke-width="4.2141" stroke="#EAE9E9" fill="#D15C44" fill-rule="evenodd"/>
  <path id="svg_76" d="m1918.396,503.215c-23.757,0 -46.937,0 -70.567,0c-0.107,-1.819 -0.29,-3.439 -0.295,-5.059c-0.014,-31.818 0.07,-63.637 -0.103,-95.453c-0.024,-4.346 1.041,-5.809 5.593,-5.755c20.029,0.24 40.064,0.132 60.098,0.083c3.409,-0.01 5.682,0.37 5.663,4.841c-0.154,32.66 -0.084,65.32 -0.099,97.98c0,0.974 -0.164,1.949 -0.29,3.363z" stroke-miterlimit="10" stroke-width="4.2141" stroke="#EAE9E9" fill="#D15C44" fill-rule="evenodd"/>
  <path id="svg_77" d="m1986.97,473.896c-21.282,0 -42.089,0 -63.3,0c-0.136,-1.616 -0.366,-3.062 -0.37,-4.509c-0.019,-22.364 0.052,-44.73 -0.08,-67.094c-0.022,-3.72 0.741,-5.378 4.952,-5.331c18.158,0.211 36.321,0.112 54.484,0.068c2.774,-0.007 4.814,0.105 4.796,3.898c-0.132,23.541 -0.079,47.084 -0.103,70.625c0.001,0.64 -0.202,1.278 -0.379,2.343z" stroke-miterlimit="10" stroke-width="4.2141" stroke="#EAE9E9" fill="#D15C44" fill-rule="evenodd"/>
  <path id="svg_78" d="m1987.025,552.671c-21.196,0 -42.004,0 -63.28,0c0,-24.46 0,-48.863 0,-73.582c21.046,0 41.977,0 63.28,0c0,24.435 0,48.722 0,73.582z" stroke-miterlimit="10" stroke-width="4.2141" stroke="#EAE9E9" fill="#D15C44" fill-rule="evenodd"/>
  <path id="svg_79" d="m1987.161,557.941c0,21.342 0,42.321 0,63.764c-21.159,0 -42.088,0 -63.449,0c0,-21.232 0,-42.312 0,-63.764c20.972,0 41.911,0 63.449,0z" stroke-miterlimit="10" stroke-width="4.2141" stroke="#EAE9E9" fill="#D15C44" fill-rule="evenodd"/>
  <path id="svg_80" d="m1605.531,449.667c-23.541,0 -46.369,0 -69.85,0c-0.099,-1.578 -0.28,-3.172 -0.286,-4.765c-0.022,-14.129 0.113,-28.258 -0.093,-42.382c-0.056,-4.006 0.858,-5.61 5.246,-5.563c20.01,0.216 40.026,0.08 60.041,0.117c2.209,0.005 4.97,-0.717 4.961,3.123c-0.042,16.29 -0.019,32.582 -0.019,49.47z" stroke-miterlimit="10" stroke-width="4.2141" stroke="#EAE9E9" fill="#D15C44" fill-rule="evenodd"/>
  <path id="svg_81" d="m1535.598,503.1c0,-16.204 0,-31.971 0,-48.177c23.199,0 46.271,0 69.653,0c0,16.056 0,31.941 0,48.177c-23.167,0 -46.121,0 -69.653,0z" stroke-miterlimit="10" stroke-width="4.2141" stroke="#EAE9E9" fill="#D15C44" fill-rule="evenodd"/>
  <path id="svg_82" d="m1387.254,451.695c20.516,0 40.658,0 61.264,0c0,17.063 0,34.079 0,51.425c-20.361,0 -40.625,0 -61.264,0c0,-17.037 0,-33.932 0,-51.425z" stroke-miterlimit="10" stroke-width="4.2141" stroke="#EAE9E9" fill="#D15C44" fill-rule="evenodd"/>
  <path id="svg_83" d="m1448.959,446.641c-20.859,0 -40.992,0 -61.776,0c-0.103,-1.59 -0.286,-3.186 -0.29,-4.78c-0.024,-13.119 0.126,-26.239 -0.094,-39.35c-0.065,-4.023 0.886,-5.613 5.26,-5.554c17.32,0.23 34.643,0.078 51.963,0.115c2.217,0.007 4.965,-0.703 4.956,3.134c-0.042,15.28 -0.019,30.562 -0.019,46.435z" stroke-miterlimit="10" stroke-width="4.2141" stroke="#EAE9E9" fill="#D15C44" fill-rule="evenodd"/>
  <path id="svg_84" d="m1387.178,557.568c0,-16.426 0,-32.648 0,-49.206c20.513,0 40.771,0 61.42,0c0,16.332 0,32.555 0,49.206c-20.24,0 -40.499,0 -61.42,0z" stroke-miterlimit="10" stroke-width="4.2141" stroke="#EAE9E9" fill="#D15C44" fill-rule="evenodd"/>
  <path id="svg_85" d="m1390.08,562.773c19.853,0 38.967,0 58.489,0c0,18.496 0,36.795 0,56.386c-19.827,-19.115 -38.872,-37.472 -58.489,-56.386z" stroke-miterlimit="10" stroke-width="4.2141" stroke="#EAE9E9" fill="#D15C44" fill-rule="evenodd"/>
  <path id="svg_86" d="m882.747,401.09c-44.01,0 -87.686,0 -131.767,0c0,-66.572 0,-132.907 0,-199.637c44.011,0 87.658,0 131.767,0c0,66.34 0,132.68 0,199.637z" stroke-miterlimit="10" stroke-width="4.2141" stroke="#EAE9E9" fill="#E78A3A" fill-rule="evenodd"/>
  <path id="svg_87" d="m888.378,201.317c30.837,0 61.229,0 92.108,0c0.126,2.194 0.335,4.159 0.337,6.125c0.031,45.596 0.002,91.191 0.134,136.788c0.007,3.429 -1.166,5.398 -3.894,7.341c-13.59,9.682 -27.121,19.458 -40.471,29.468c-7.485,5.612 -14.54,11.803 -21.894,17.596c-1.52,1.196 -3.484,2.464 -5.291,2.541c-6.858,0.3 -13.74,0.122 -21.03,0.122c0.001,-66.75 0.001,-133.094 0.001,-199.981z" stroke-miterlimit="10" stroke-width="4.2141" stroke="#EAE9E9" fill="#E78A3A" fill-rule="evenodd"/>
  <path id="svg_88" d="m662.087,297.338c13.85,0 27.236,0 40.964,0c0,34.557 0,68.806 0,103.534c-13.506,0 -27.01,0 -40.964,0c0,-34.349 0,-68.717 0,-103.534z" stroke-miterlimit="10" stroke-width="4.2141" stroke="#EAE9E9" fill="#E78A3A" fill-rule="evenodd"/>
  <path id="svg_89" d="m708.569,297.347c12.518,0 24.552,0 36.919,0c0,34.562 0,68.809 0,103.527c-12.176,0 -24.333,0 -36.919,0c0,-34.351 0,-68.714 0,-103.527z" stroke-miterlimit="10" stroke-width="4.2141" stroke="#EAE9E9" fill="#E78A3A" fill-rule="evenodd"/>
  <path id="svg_90" d="m656.642,351.61c0,16.895 0,32.956 0,49.658c-10.973,0 -21.663,0.066 -32.348,-0.14c-0.771,-0.014 -2.146,-2.018 -2.157,-3.106c-0.143,-14.448 -0.152,-28.896 0.037,-43.341c0.012,-1.036 1.822,-2.917 2.827,-2.938c10.376,-0.218 20.759,-0.133 31.641,-0.133z" stroke-miterlimit="10" stroke-width="4.2141" stroke="#EAE9E9" fill="#E78A3A" fill-rule="evenodd"/>
  <path id="svg_91" d="m434.292,360.623c-30.44,2.561 -60.65,0.617 -91.306,1.393c0,-29.746 0,-59.068 0,-88.812c30.281,0 60.616,0 91.306,0c0,29.113 0,58.102 0,87.419z" stroke-miterlimit="10" stroke-width="4.2141" stroke="#EAE9E9" fill="#E78A3A" fill-rule="evenodd"/>
  <path id="svg_92" d="m386.347,207.352c30.609,0 60.798,0 91.316,0c0,22.071 0,43.858 0,66.124c-30.267,0 -60.576,0 -91.316,0c0,-21.83 0,-43.732 0,-66.124z" stroke-miterlimit="10" stroke-width="4.2141" stroke="#EAE9E9" fill="#E78A3A" fill-rule="evenodd"/>
  <path id="svg_93" d="m439.721,297.293c22.29,0 44.074,0 66.279,0c0,34.345 0,68.482 0,103.667c-22.399,-13.983 -44.09,-27.526 -66.279,-41.378c0,-20.06 0,-40.862 0,-62.289z" stroke-miterlimit="10" stroke-width="4.2141" stroke="#EAE9E9" fill="#E78A3A" fill-rule="evenodd"/>
  <path id="svg_94" d="m556.331,358.535c-15.08,0 -29.673,0 -44.66,0c0,-20.355 0,-40.455 0,-60.997c14.743,0 29.458,0 44.66,0c0,20.12 0,40.339 0,60.997z" stroke-miterlimit="10" stroke-width="4.2141" stroke="#EAE9E9" fill="#E78A3A" fill-rule="evenodd"/>
  <path id="svg_95" d="m584.749,401.066c-24.523,0 -48.679,0 -73.208,0c0,-12.436 0,-24.596 0,-37.083c24.429,0 48.587,0 73.208,0c0,12.201 0,24.361 0,37.083z" stroke-miterlimit="10" stroke-width="4.2141" stroke="#EAE9E9" fill="#E78A3A" fill-rule="evenodd"/>
  <path stroke="#EAE9E9" id="svg_96" d="m1138.614007,204.348c0,45.153 0,89.872 0,135.022c-22.937598,0 -45.80706,0 -68.850368,0c0,-45.028 0,-89.857 0,-135.022c22.934091,0 45.743434,0 68.850368,0z" stroke-miterlimit="10" stroke-width="4.2141" fill="#E78A3A" fill-rule="evenodd"/>
  <path id="svg_97" d="m1148.015798,340.253359c0,-45.044 0,-88.87 0,-133.038c47.114,0 93.953,0 141.555,0c0,9.086 -0.126,18.103 0.052,27.114c0.093,4.574 -0.174,7.843 -5.041,10.896c-13.109,8.226 -25.515,17.575 -38.174,26.521c-10.479,7.405 -20.877,14.933 -31.379,22.303c-13.635,9.567 -27.315,19.066 -41.021,28.53c-8.317,5.745 -16.714,11.371 -25.992,17.674z" stroke-miterlimit="10" stroke-width="4.2141" stroke="#EAE9E9" fill="#E78A3A" fill-rule="evenodd"/>
  <path id="svg_98" d="m2030.699,497.192c4.365,0 8.472,0 12.926,0c0,22.446 0,44.695 0,67.416c-4.112,0 -8.342,0 -12.926,0c0,-22.39 0,-44.756 0,-67.416z" stroke-miterlimit="10" stroke-width="4.2141" stroke="#EAE9E9" fill="#D15C44" fill-rule="evenodd"/>
  <path id="svg_99" d="m2030.615,492.016c0,-19.659 0,-38.877 0,-58.426c4.365,0 8.472,0 12.973,0c0,19.417 0,38.755 0,58.426c-4.242,0 -8.351,0 -12.973,0z" stroke-miterlimit="10" stroke-width="4.2141" stroke="#EAE9E9" fill="#D15C44" fill-rule="evenodd"/>
  <path id="svg_100" d="m2030.685,569.904c4.417,0 8.52,0 12.959,0c0,17.116 0,33.978 0,51.292c-4.172,0 -8.397,0 -12.959,0c0,-16.935 0,-33.797 0,-51.292z" stroke-miterlimit="10" stroke-width="4.2141" stroke="#EAE9E9" fill="#D15C44" fill-rule="evenodd"/>
  <path id="svg_101" d="m1098.365,956.206c0,-13.249 0,-26.307 0,-40.016c7.151,0 14.007,-0.188 20.842,0.074c4.048,0.154 5.226,-1.384 5.17,-5.283c-0.181,-13.292 -0.197,-26.588 0.006,-39.881c0.064,-4.079 -1.446,-5.27 -5.316,-5.134c-6.706,0.235 -13.422,0.064 -20.574,0.064c0,-12.217 0,-24.046 0,-36.297c42.82,0 85.635,0 129.627,0c-3.118,5.517 -5.983,10.595 -8.847,15.673c-7.53,13.354 -15.135,26.659 -22.566,40.068c-12.678,22.885 -25.224,45.849 -37.936,68.715c-0.669,1.204 -2.377,2.612 -3.609,2.62c-18.508,0.117 -37.017,0.019 -55.524,-0.046c-0.294,0.002 -0.589,-0.248 -1.273,-0.557z" stroke-miterlimit="10" stroke-width="4.6168" stroke="#EAEAEA" fill="#BD365A" fill-rule="evenodd"/>
  <path id="svg_102" d="m1087.074,891.229c-0.002,-5.547 0.092,-11.099 -0.04,-16.64c-0.068,-2.851 1.078,-3.83 3.863,-3.799c8.739,0.109 17.486,-0.093 26.219,0.208c1.235,0.041 3.411,2.161 3.438,3.361c0.262,11.257 0.244,22.523 0,33.78c-0.022,1.102 -2.059,3.062 -3.207,3.095c-8.901,0.263 -17.816,0.099 -26.724,0.183c-2.571,0.022 -3.626,-0.942 -3.577,-3.544c0.106,-5.547 0.034,-11.099 0.028,-16.644z" stroke-miterlimit="10" stroke-width="4.6168" stroke="#EAEAEA" fill="#BD365A" fill-rule="evenodd"/>
  <path id="svg_103" d="m1773.382218,200.524202c0,11.814 0,23.351 0,35.311c-1.853,0.129 -3.48,0.335 -5.106,0.338c-19.358,0.021 -38.722,-0.101 -58.082,0.103c-4.275,0.045 -6.015,-0.938 -5.837,-5.563c0.342,-8.739 0.136,-17.504 0.084,-26.261c-0.013,-2.646 0.314,-4.499 3.751,-4.477c21.042,0.117 42.089,0.086 63.131,0.125c0.487,-0.001 0.976,0.194 2.059,0.424z" stroke-miterlimit="10" stroke-width="4.2141" stroke="#EAE9E9" fill="#D15C44" fill-rule="evenodd"/>
  <text font-weight="bold" stroke="null" transform="matrix(3.545683622360229,0,0,3.6883938657670674,-1376.5414811819792,-288.2573868448758) " xml:space="preserve" text-anchor="start" font-family="Helvetica, Arial, sans-serif" font-size="24" id="svg_104" y="116.696407" x="600.559479" stroke-opacity="null" stroke-width="0" fill="#d15c44">Thomas More</text>
  <path stroke="#EAEAEA" id="svg_105" d="m1241.003314,1193.045144c26.885687,0 53.341045,0 80.216362,0c0,8.929289 0,17.775483 0,26.771249c-26.636822,0 -53.213502,0 -80.216362,0c0,-8.865767 0,-17.710484 0,-26.771249z" stroke-miterlimit="10" stroke-width="4.6168" fill="#BD365A" fill-rule="evenodd"/>
  <path stroke="#EAEAEA" id="svg_107" d="m1343.868258,1193.045144c26.885687,0 53.341045,0 80.216363,0c0,8.92929 0,17.775483 0,26.771249c-26.636822,0 -53.213502,0 -80.216363,0c0,-8.865767 0,-17.710483 0,-26.771249z" stroke-miterlimit="10" stroke-width="4.6168" fill="#BD365A" fill-rule="evenodd"/>
 </g>
</svg>